:SAMPLES-PER-SECOND 30
:FULLY-SPECIFIED
:DEGREES
223
root  -10.321 40.3413 8.37169 -173.01 -77.8648 176.251
RightUpLeg  -11.1498 -16.5662 -11.4409
RightLeg  12.1616 -6.74838 0.885898
RightFoot  -0.00883675 -0.67541 6.79855
RightToes  -2.9104e-010 0 -3.6325e-017
Spine  20.4051 3.77634 13.5768
Spine1  21.3798 13.2129 -16.4335
HEad  -4.46701 -6.48585 10.6494
LeftShoulder1  9.15636 -14.884 -43.3127
LeftArm  -8.49882 6.64798 -25.6424
LeftForeArm  34.0174 -27.7046 -4.1419
LeftHand  -0.244104 0.0205437 5.32207
RightShoulder  3.67425 10.4022 20.02
RightArm  -26.8219 61.279 24.774
RightForeArm  -18.9603 52.6533 16.1784
RightHand  -2.83414 9.33407 -22.4044
LeftUpLeg  -16.9702 11.1976 0.418934
LeftLeg  12.199 0.719565 -2.33317
LeftFoot  2.52596 -0.154466 1.14448
LeftToes  -1.62803e-010 -2.57217e-011 -2.5681e-011
224
root  -10.3219 40.352 8.35837 -173.354 -75.4896 176.219
RightUpLeg  -11.2965 -15.7888 -11.4269
RightLeg  11.8058 -5.33206 1.20189
RightFoot  0.346932 -0.667994 6.54176
RightToes  -2.9104e-010 0 -3.6325e-017
Spine  19.6395 3.60067 12.8472
Spine1  21.5005 12.6678 -16.0905
HEad  -3.70907 -4.4541 10.1859
LeftShoulder1  9.1867 -14.8199 -43.6258
LeftArm  -9.40195 6.30183 -25.1399
LeftForeArm  34.7263 -29.5872 -4.52273
LeftHand  -0.244104 0.0205437 5.32207
RightShoulder  3.85502 10.5702 21.0555
RightArm  -22.732 59.6663 27.5974
RightForeArm  -16.7771 55.2278 17.6775
RightHand  -2.50156 8.46941 -21.0546
LeftUpLeg  -16.2121 11.6851 0.705226
LeftLeg  12.1853 2.41797 -2.01843
LeftFoot  2.08063 -0.121694 0.927249
LeftToes  -1.62803e-010 -2.57217e-011 -2.5681e-011
225
root  -10.3265 40.3722 8.31992 -174.08 -72.7666 176.505
RightUpLeg  -11.3741 -14.6038 -11.2189
RightLeg  11.2922 -3.98015 1.39316
RightFoot  0.807705 -0.67383 6.37626
RightToes  -2.9104e-010 0 -3.6325e-017
Spine  18.8935 3.42862 12.1226
Spine1  21.6673 12.1743 -15.8108
HEad  -3.0241 -2.32886 9.86914
LeftShoulder1  9.1885 -14.7264 -43.8711
LeftArm  -10.5462 6.14258 -24.625
LeftForeArm  35.6747 -31.8756 -5.0008
LeftHand  -0.244104 0.0205437 5.32207
RightShoulder  4.09674 10.781 22.4245
RightArm  -19.2157 58.0721 29.4961
RightForeArm  -13.9399 57.5959 19.2105
RightHand  -2.16762 7.56324 -19.571
LeftUpLeg  -15.2607 12.197 1.22212
LeftLeg  12.1519 4.41857 -1.7153
LeftFoot  1.62516 -0.0827252 0.641284
LeftToes  -1.62803e-010 -2.57217e-011 -2.5681e-011
226
root  -10.3342 40.4001 8.25731 -175.039 -69.918 176.906
RightUpLeg  -11.2852 -13.2788 -10.8644
RightLeg  10.6958 -2.59558 1.4968
RightFoot  1.29022 -0.677828 6.19779
RightToes  -2.9104e-010 0 -3.6325e-017
Spine  18.2674 3.20189 11.3785
Spine1  21.788 11.6129 -15.4783
HEad  -2.31558 -0.230196 9.69045
LeftShoulder1  9.17547 -14.6252 -44.0635
LeftArm  -11.6778 6.17996 -24.0939
LeftForeArm  36.46 -34.2431 -5.53022
LeftHand  -0.244104 0.0205437 5.32207
RightShoulder  4.38228 11.0209 24.0011
RightArm  -16.215 56.4773 30.628
RightForeArm  -11.0754 59.7819 20.8287
RightHand  -1.87376 6.6135 -18.2917
LeftUpLeg  -14.1278 12.635 1.91476
LeftLeg  12.1766 6.59872 -1.39765
LeftFoot  1.21486 -0.0327944 0.23122
LeftToes  -1.62803e-010 -2.57217e-011 -2.5681e-011
227
root  -10.3448 40.4285 8.16847 -175.892 -67.1057 177.261
RightUpLeg  -11.247 -12.1053 -10.3884
RightLeg  10.1854 -1.09854 1.58093
RightFoot  1.70548 -0.655117 5.82586
RightToes  -2.9104e-010 0 -3.6325e-017
Spine  17.6088 2.9822 10.5451
Spine1  21.7904 10.9296 -14.8993
HEad  -1.52497 1.55953 9.60828
LeftShoulder1  9.2087 -14.5847 -44.335
LeftArm  -12.4192 6.12653 -23.4028
LeftForeArm  36.6761 -35.9314 -5.94606
LeftHand  -0.244104 0.0205437 5.32207
RightShoulder  4.63565 11.2135 25.3922
RightArm  -13.7815 54.6952 31.5035
RightForeArm  -8.54041 61.72 22.4904
RightHand  -1.61295 5.69265 -17.0773
LeftUpLeg  -13.0206 13.1065 2.63914
LeftLeg  12.2162 8.68399 -1.08558
LeftFoot  0.852871 0.0208601 -0.243604
LeftToes  -1.62803e-010 -2.57217e-011 -2.5681e-011
228
root  -10.3614 40.4532 8.0541 -176.542 -64.3344 177.613
RightUpLeg  -11.3828 -11.0259 -9.78816
RightLeg  9.75931 0.439761 1.64054
RightFoot  2.05373 -0.624072 5.429
RightToes  -2.9104e-010 0 -3.6325e-017
Spine  16.7734 2.81235 9.69015
Spine1  21.729 10.1891 -14.0988
HEad  -0.737051 2.92119 9.62114
LeftShoulder1  9.27476 -14.5894 -44.6563
LeftArm  -12.7739 5.82305 -22.6644
LeftForeArm  36.6463 -36.7339 -6.15891
LeftHand  -0.244104 0.0205437 5.32207
RightShoulder  4.82846 11.3149 26.5217
RightArm  -12.0285 52.6511 32.2046
RightForeArm  -6.14882 63.3748 24.1032
RightHand  -1.37201 4.86572 -15.7253
LeftUpLeg  -12.0527 13.6622 3.37194
LeftLeg  12.2179 10.61 -0.81811
LeftFoot  0.503422 0.0683536 -0.688364
LeftToes  -1.62803e-010 -2.57217e-011 -2.5681e-011
229
root  -10.3872 40.4758 7.92091 -177.083 -61.652 177.953
RightUpLeg  -11.4804 -9.97719 -9.15145
RightLeg  9.26468 1.94929 1.67303
RightFoot  2.37983 -0.628255 5.3517
RightToes  -2.9104e-010 0 -3.6325e-017
Spine  15.8858 2.60839 8.88996
Spine1  21.651 9.39495 -13.222
HEad  -0.0386708 4.04764 9.66934
LeftShoulder1  9.29466 -14.5478 -44.8642
LeftArm  -13.0488 5.52584 -22.1694
LeftForeArm  36.9157 -37.2218 -6.27397
LeftHand  -0.244104 0.0205437 5.32207
RightShoulder  5.01938 11.3803 27.6995
RightArm  -10.9118 50.4856 32.3427
RightForeArm  -3.80412 64.8354 25.708
RightHand  -1.18218 4.1817 -14.5426
LeftUpLeg  -11.1204 14.0951 4.1285
LeftLeg  12.1971 12.5429 -0.566003
LeftFoot  0.187647 0.111885 -1.11982
LeftToes  -1.62803e-010 -2.57217e-011 -2.5681e-011
230
root  -10.4201 40.4989 7.77579 -177.584 -59.2026 178.203
RightUpLeg  -11.3644 -9.12144 -8.59352
RightLeg  8.70103 3.42029 1.73684
RightFoot  2.6796 -0.65945 5.50699
RightToes  -2.9104e-010 0 -3.6325e-017
Spine  15.1491 2.30549 8.09705
Spine1  21.5247 8.46977 -12.2317
HEad  0.527901 5.11205 9.65207
LeftShoulder1  9.25762 -14.4524 -44.9256
LeftArm  -13.3765 5.5093 -21.9996
LeftForeArm  37.3915 -37.8389 -6.41335
LeftHand  -0.244104 0.0205437 5.32207
RightShoulder  5.2475 11.4699 29.0566
RightArm  -10.3369 48.3229 31.7006
RightForeArm  -1.51324 66.2646 27.5086
RightHand  -1.07141 3.70837 -13.8714
LeftUpLeg  -10.1319 14.2777 4.84545
LeftLeg  12.1836 14.5038 -0.272699
LeftFoot  -0.0482321 0.160206 -1.61773
LeftToes  -1.62803e-010 -2.57217e-011 -2.5681e-011
231
root  -10.4526 40.5226 7.62114 -178.033 -57.0318 178.374
RightUpLeg  -11.1745 -8.53497 -8.09693
RightLeg  8.25655 4.81134 1.85949
RightFoot  2.92003 -0.657075 5.40805
RightToes  -2.9104e-010 0 -3.6325e-017
Spine  14.5726 1.97172 7.27685
Spine1  21.364 7.43242 -10.9915
HEad  0.886827 6.03843 9.57594
LeftShoulder1  9.22708 -14.3896 -44.9349
LeftArm  -13.5658 5.64055 -22.0407
LeftForeArm  37.5976 -38.3987 -6.55481
LeftHand  -0.244104 0.0205437 5.32207
RightShoulder  5.46026 11.5442 30.3214
RightArm  -10.3608 46.1815 30.4798
RightForeArm  1.01391 67.7366 29.6409
RightHand  -1.01186 3.46945 -13.4556
LeftUpLeg  -9.13977 14.4511 5.4724
LeftLeg  12.1467 16.2378 0.0330692
LeftFoot  -0.218811 0.212699 -2.17141
LeftToes  -1.62803e-010 -2.57217e-011 -2.5681e-011
232
root  -10.4773 40.5446 7.46026 -178.389 -55.041 178.544
RightUpLeg  -11.1281 -8.06386 -7.56668
RightLeg  8.04268 6.08085 1.98414
RightFoot  3.10279 -0.598398 4.88632
RightToes  -2.9104e-010 0 -3.6325e-017
Spine  14.069 1.68517 6.51807
Spine1  21.2427 6.40479 -9.55918
HEad  0.964762 6.75917 9.50084
LeftShoulder1  9.22062 -14.3846 -44.9152
LeftArm  -13.464 5.64011 -22.2684
LeftForeArm  37.4987 -38.6425 -6.6284
LeftHand  -0.244104 0.0205437 5.32207
RightShoulder  5.59488 11.5365 31.2461
RightArm  -11.0236 44.1434 28.9569
RightForeArm  4.00441 69.1731 32.0227
RightHand  -0.952515 3.3179 -12.8955
LeftUpLeg  -8.24222 14.8623 6.04713
LeftLeg  12.0617 17.5877 0.274663
LeftFoot  -0.375601 0.261086 -2.69702
LeftToes  -1.62803e-010 -2.57217e-011 -2.5681e-011
233
root  -10.491 40.5605 7.30092 -178.607 -53.184 178.692
RightUpLeg  -11.2553 -7.59896 -7.01798
RightLeg  7.99852 7.25248 2.0655
RightFoot  3.24192 -0.532924 4.33531
RightToes  -2.9104e-010 0 -3.6325e-017
Spine  13.6629 1.4231 5.88534
Spine1  21.1664 5.44068 -8.12377
HEad  0.764778 7.41278 9.35194
LeftShoulder1  9.20166 -14.381 -44.8283
LeftArm  -13.1392 5.48929 -22.7407
LeftForeArm  37.4161 -38.6849 -6.64512
LeftHand  -0.244104 0.0205437 5.32207
RightShoulder  5.66022 11.4614 31.8738
RightArm  -12.176 42.3597 27.2489
RightForeArm  7.0343 70.4742 34.5443
RightHand  -0.888352 3.0602 -12.4009
LeftUpLeg  -7.49864 15.3356 6.58158
LeftLeg  11.9844 18.7569 0.455399
LeftFoot  -0.523023 0.301806 -3.1545
LeftToes  -1.62803e-010 -2.57217e-011 -2.5681e-011
234
root  -10.4941 40.5687 7.14921 -178.67 -51.539 178.736
RightUpLeg  -11.459 -7.18663 -6.55559
RightLeg  8.05076 8.33469 2.12571
RightFoot  3.32012 -0.503983 4.09154
RightToes  -2.9104e-010 0 -3.6325e-017
Spine  13.4347 1.14096 5.3305
Spine1  21.1024 4.50303 -6.74599
HEad  0.306821 8.14368 9.00238
LeftShoulder1  9.17483 -14.3732 -44.712
LeftArm  -12.6789 5.2991 -23.3918
LeftForeArm  37.4438 -38.7305 -6.65623
LeftHand  -0.244104 0.0205437 5.32207
RightShoulder  5.68966 11.3748 32.2937
RightArm  -13.6545 40.8621 25.4415
RightForeArm  9.51764 71.6346 37.2744
RightHand  -0.862058 2.7592 -12.4656
LeftUpLeg  -6.90202 15.5291 7.02369
LeftLeg  11.9535 20.0223 0.619213
LeftFoot  -0.621322 0.334978 -3.53066
LeftToes  -1.62803e-010 -2.57217e-011 -2.5681e-011
